<svg xmlns="http://www.w3.org/2000/svg" viewBox="0 0 26 21">
  <path fill="#66ADFF" fill-rule="evenodd" d="M1.272 16.927h23.456V1.3H1.272v15.628zM13.276.645A.27.27 0 0 1 13 .909a.27.27 0 0 1-.277-.264A.27.27 0 0 1 13 .38c.15 0 .275.119.275.265zM1.51 0C.675 0 0 .65 0 1.455V16.77c0 .805.675 1.453 1.51 1.457h8.117c-.003.017-.006.034-.006.053v.922c0 .343-.73.937-.943 1.24a.25.25 0 0 0-.107.2v.096c0 .145.122.262.273.262h8.13a.268.268 0 0 0 .275-.262v-.095a.25.25 0 0 0-.11-.202c-.214-.303-.941-.896-.941-1.24v-.92c0-.02-.005-.037-.006-.054h8.294c.838-.004 1.514-.652 1.514-1.457V1.455C26 .65 25.324 0 24.486 0H1.51z"/>
</svg>
