<svg xmlns="http://www.w3.org/2000/svg" viewBox="0 0 14 26">
  <path fill="#66ADFF" fill-rule="evenodd" d="M.668 22.458h12.744V3.546H.668v18.912zm6.373 2.72a.85.85 0 0 1-.852-.848c0-.467.38-.845.852-.845.469 0 .85.378.85.845a.85.85 0 0 1-.85.848zM5.933 2.198h2.13a.25.25 0 0 1 .253.248.253.253 0 0 1-.252.251H5.933a.254.254 0 0 1-.253-.25c0-.138.115-.25.253-.25zM12.5 0H1.497C.67 0 0 .667 0 1.49v23.022C0 25.333.67 26 1.497 26H12.5c.826 0 1.499-.667 1.499-1.488V1.49A1.494 1.494 0 0 0 12.501 0z"/>
</svg>
